<svg xmlns="http://www.w3.org/2000/svg" width="800" height="600" xml:space="preserve"><g stroke="#000" stroke-miterlimit="1"><path d="m413.8 345.9-15.3.4 1.4.2 15.4-.3zM477.3 345.9l-22.7.8h11.6l50.6-.8zM415.3 346.2l-15.4.3 1.1.2h2.2z"/><path d="m485 346-9.7.1 31.9 5.2h10.1z"/><path d="m492.4 346.3-7.4-.3 32.3 5.3 7.6.2zM475.3 346.1l-11.5.4 31.6 5.2 11.8-.4z"/><path d="m448 348 18.2-1.3h-11.6zM496.9 346.8l-4.5-.5 32.5 5.2 4.8.6zM403.2 346.7H401l32.6 5.8h2.3z"/><path d="m463.8 346.5-12.6.7 31.3 5.3 12.9-.8zM396.8 349.7l18.5-3.5-12.1.5-16.5 3zM477.3 345.6l39.5 4.3 30-1-30-3zM398.5 346.3l-18.9 3.5 1.5.2 18.8-3.5z"/><path d="m399.9 346.5-18.8 3.5 3.4-.3 16.5-3zM451.2 347.2l-12.9.9 31.1 5.4 13.1-1z"/><path d="m475.7 350.7-26.1-3.9-6.5.7 17.9 2.7zM449.6 346.8l26.1 3.9 41.1-.8-39.5-4.3z"/><path d="m426.4 349.1 4.6.4 17-1.5 6.6-1.3zM401 346.7l-16.5 3 32.6 6.1 16.5-3.3z"/><path d="m438.3 348.1-12.3 1.1 30.9 5.5 12.5-1.2zM381.1 350l15.7-.3h-12.3z"/><path d="m431.5 348.8-22.9 4.7 34.5-6z"/><path d="m406.9 352.5 24.1-3-4.6-.4-22.4 2.8z"/><path d="m426 349.2-11 1.3 30.8 5.6 11.1-1.4zM475.7 350.7l-14.7-.5 17.9 2.9 40 5.2z"/><path d="m408.6 353.5 22.9-4.7-24.6 3.7z"/><path d="m415 350.5-8.8 1.3 30.8 5.7 8.8-1.4zM517.3 351.3h-10.1l-26.2 5.2z"/><path d="m524.9 351.5-7.6-.2-36.3 5.2z"/><path d="m507.2 351.3-11.8.4-14.4 4.8zM529.7 352.1l-4.8-.6-43.9 5zM463.2 352.4l1.6.3 14.1.4-17.9-2.9z"/><path d="m495.4 351.7-12.9.8-1.5 4zM433.6 352.5l4.7.9 2.3-.1-4.7-.8z"/><path d="m436 353 1.5.3 27.3-.6-1.6-.3zM531.3 353l-1.6-.9-48.7 4.4z"/><path d="m450.2 355.1 13-2.7-2.2-2.2-27.1 4.6zM406.2 351.8l-5.9 1.3 30.7 5.8 6-1.4zM482.5 352.5l-13.1 1 11.6 3z"/><path d="m408.6 353.5 25.3 1.3 27.1-4.6-17.9-2.7zM516.8 349.9l44.5 7.2 36.7-.2-51.2-8zM529.5 354.2l1.8-1.2-50.3 3.5z"/><path d="m469.4 353.5-12.5 1.2 24.1 1.8zM433.6 352.5l-16.5 3.3 3.3.9 17.9-3.3z"/><path d="m464.8 352.7-14.4 2.7 4.2 1.8 24.3-4.1zM400.3 353.1l-2.7 1.2 30.8 5.8 2.6-1.2z"/><path d="m394.2 354.3-8.2 1.3 20.9-3.1-2.9-.6zM437.5 353.3l-14.8 2.7 27.7-.6 14.4-2.7zM475.7 350.7l43.2 7.6 42.4-1.2-44.5-7.2zM492.9 356.1l-14-3-24.3 4.1 20.5 2.8z"/><path d="m524.4 355.5 5.1-1.3-48.5 2.3zM440.6 353.3l-2.3.1 76.6 14 2.5-.1z"/><path d="m450.4 355.4-.2-.3-16.3-.3 20.7 2.4z"/><path d="m408.6 353.5-8.4 3.4 23.8.9 9.9-3zM456.9 354.7l-11.1 1.4 35.2.4z"/><path d="m397.6 354.3.8.9 31.1 5.9-1.1-1z"/><path d="m373.5 359.8 35.1-6.3-1.7-1-20.9 3.1zM516.3 356.9l8.1-1.4-43.4 1zM445.8 356.1l-8.8 1.4 44-1z"/><path d="m433.9 354.8-9.9 3 15 2.3 15.6-2.9z"/><path d="m438.3 353.4-17.9 3.3 76.7 14.6 17.8-3.9z"/><path d="m417.8 356-19.4.3 35.9 6.7 20.4-.1zM505.6 358.3l10.7-1.4-35.3-.4z"/><path d="m492.9 356.1 17.4 2.8 8.6-.6-40-5.2zM373.5 359.8l26.7-2.9 8.4-3.4zM437 357.5l-6 1.4 50-2.4z"/><path d="m486.6 362-38.1-6.8-9.7.3 37.8 6.9zM491.3 357.3l13.9 2.2 5.1-.6-17.4-2.8z"/><path d="m476.1 360.6 15.2-3.3 1.6-1.2-17.8 3.9zM476.6 362.4l-37.8-6.9-21 .5 36.9 6.9z"/><path d="m493 359.6 12.6-1.3-24.6-1.8z"/><path d="m491.3 357.3-15.2 3.3 29.1-1.1zM431 358.9l-2.6 1.2 52.6-3.6z"/><path d="m454.6 357.2-15.6 2.9 20.7 2.2 15.4-2.3zM479.3 360.7l13.7-1.1-12-3.1z"/><path d="m428.4 360.1 1.1 1 51.5-4.6zM606.7 364.4l-45.4-7.3-42.4 1.2 47.3 7.7z"/><path d="m651 365.1-53-8.2-36.7.2 45.4 7.3zM424 357.8l-6.4 5.5 21.4-3.2zM465.7 361.5l13.6-.8 1.7-4.2z"/><path d="m400.2 356.9-8.9 6.8 26.3-.4 6.4-5.5zM429.5 361.1l4.7.7 46.8-5.3zM505.2 359.5l12.8 2.4h8.7l-16.4-3zM453 362l12.7-.5 15.3-5z"/><path d="m434.2 361.8 8 .3 38.8-5.6z"/><path d="m442.2 362.1 10.8-.1 28-5.5zM460.6 363l15.5-2.4-1-.6-15.4 2.3zM518.9 358.3l26.7 6.2 16.4 2.7 4.2-1.2z"/><path d="m439 360.1-21.4 3.2 25.5 1.9 16.6-2.9zM505.2 359.5l-3.9 5.6 16.7-3.2z"/><path d="m476.1 360.6 25.2 4.5 3.9-5.6zM526.7 361.9l18.9 2.6-26.7-6.2-8.6.6zM373.5 359.8l-.2 5.2 18-1.3 8.9-6.8z"/><path d="m476.1 360.6-15.5 2.4 24 5.1 16.7-3zM345.9 362.8l-5.1 2.2 32.7-5.2 12.5-4.2zM518 361.9l-16.7 3.2 5.9.6 19.5-3.8zM444 365.9l16.6-2.9-.9-.7-16.6 2.9zM526.7 361.9l-19.5 3.8 16.4 3.9 22-5.1z"/><path d="m460.6 363-16.6 2.9 24.2 4.9 16.4-2.7zM345.9 362.8l-31.2 5.9-4.3 1.8 30.4-5.5zM340.8 365l.4 4.1 32.1-4.1.2-5.2zM501.3 365.1l-16.7 3 6 .6 16.6-3zM548 367.1l1.9.3 12.1-.2-16.4-2.7zM566.2 366l-4.2 1.2 24.5 5.4 16.1.1zM391.3 363.7l-38.6 6.7 9.8 1.1 55.1-8.2zM679.8 371.5l-28.8-6.4-44.3-.7 34.9 8zM514.9 367.4l5.5 1 2.5-.1-5.5-1z"/><path d="m507.2 365.7-16.6 3 17.2 3.8 15.8-2.9zM373.3 365l-29.4 5.1 8.8.3 38.6-6.7zM518 368l1.8.3 30.1-.9-1.9-.3zM641.6 372.4l-34.9-8-40.5 1.6 36.4 6.7z"/><path d="m533.6 370.3 14.4-3.2-2.4-2.6-22 5.1zM417.6 363.3l-55.1 8.2 17.2 3.4 63.4-9.7zM340.8 365l-30.4 5.5 5.5 2.6 25.3-4zM514.9 367.4l-17.8 3.9 6.9 1 16.4-3.9zM549.9 367.4l-13.1 3.2 4.4 3.6 20.8-7zM484.6 368.1l-16.4 2.7 6 .7 16.4-2.8zM380.4 375.7l63.6-9.8-.9-.7-63.4 9.7zM614.2 368.3l-23.6 1.3-3.1 5.4z"/><path d="m519.8 368.3-13.6 3.2 30.6-.9 13.1-3.2z"/><path d="m536.8 370.6-3.2-.3-10-.7 17.6 4.6zM341.2 369.1l-19.6 4 22.3-3 29.4-5.1zM490.6 368.7l-16.4 2.8 15.9 5.2 17.7-4.2zM590.6 369.6l-31 2.9 27.9 2.5z"/><path d="m523.6 369.6-15.8 2.9 14.5 3.7 18.9-2zM562 367.2l-20.8 7 13.1 6.2 32.2-7.8zM444 365.9l-63.6 9.8 24.9 5.5 62.9-10.4zM314.7 368.7l-34.5 7.1-4.4 1.8 34.6-7.1zM628.2 369.3l42.7 6.9 9.1.4-43.1-7z"/><path d="m617.1 369.4 42.3 6.9 11.5-.1-42.7-6.9z"/><path d="m641.6 372.4-6.5 2.4 44.7-3.3z"/><path d="m636.9 369.6 43.1 7 6.2.8-43.5-7zM587.5 375l30.7-.6 23.8-6.7-27.8.6z"/><path d="m604.2 369.9 41.9 7 13.3-.6-42.3-6.9zM586.5 372.6l2.2 3.7 13.9-3.6zM315.9 373.1l-15.1 3.2 20.8-3.2 19.6-4zM659.3 375.7l22.5-1.7-2-2.5zM559.6 372.5l-22.8 3.8 50.7-1.3z"/><path d="m602.6 372.7 10.8 3.7 21.7-1.6 6.5-2.4z"/><path d="m590.5 370.8 41.6 7 14-.9-41.9-7zM310.4 370.5l-34.6 7.1 2.2 1.6 37.9-6.1zM343.9 370.1l-55.8 11.1 64.6-10.8zM562.7 376l2.6-.1-42.4-7.6-2.5.1zM507.8 372.5l-17.7 4.2 32.2-.5zM300.8 376.3l15.1-3.2-37.9 6.1-7.8 2.2z"/><path d="m563.1 376.1 18.2-.6-2.1-.3-18.1.5zM576.6 372l41.4 7.2 14.1-1.4-41.6-7zM321.6 373.1l-33.5 8.1 55.8-11.1zM635.1 374.8l1.9 2.6 22.3-1.7 20.5-4.2zM541.2 374.2l-18.9 2 9.8 5.8 22.2-1.6z"/><path d="m586.5 372.6-32.2 7.8 34.4-4.1zM546.5 380.2l16.2-4.2-42.3-7.6-16.4 3.9zM613.4 376.4l23.6 1-1.9-2.6zM468.2 370.8l-62.9 10.4 6.2.7 62.7-10.4zM352.7 370.4l-64.6 10.8 4.7 2.4 69.7-12.1z"/><path d="m588.7 376.3 5.5 1.9 19.2-1.8-10.8-3.7zM522.3 376.2l-32.2.5-.7 5.9 42.7-.6z"/><path d="m563.6 373.5 41.2 7.3 13.2-1.6-41.4-7.2z"/><path d="m536.8 376.3-8.2 3.4 58.9-4.7zM582.7 381.6l35.5-7.2-30.7.6-28.7 7.2z"/><path d="m613.4 376.4-19.2 1.8 9 2.1 33.8-2.9zM474.2 371.5l-62.7 10.4 17.6 3.6 61-8.8zM300.8 376.3l-12.7 4.9 33.5-8.1zM544.6 381.1l18.5-5-2-.4-18.5 5z"/><path d="m618.2 374.4-35.5 7.2 10.9-.4zM362.5 371.5l-69.7 12.1 10.5 3.5 76.4-12.2zM563.1 376.1l-18.5 5 18.8-.6 17.9-5z"/><path d="m552.2 375.2 41.1 7.4 11.5-1.8-41.2-7.3zM659.4 376.3l-24.9 6.9 36.4-7z"/><path d="m670.9 376.2-36.4 7 45.5-6.6zM588.7 376.3l-17.3 6.5 22.8-4.6zM646.1 376.9l-11.6 6.3 24.9-6.9zM680 376.6l-45.5 6.6 51.7-5.8z"/><path d="m632.1 377.8 2.4 5.4 11.6-6.3zM686.2 377.4l-51.7 5.8 54.6-4.6zM528.6 379.7l7.6 2.7 51.3-7.4zM270.2 381.4l17.9-.2 12.7-4.9zM303.7 388l76.7-12.3-.7-.8-76.4 12.2z"/><path d="m618 379.2 16.5 4-2.4-5.4zM554.3 380.4l17.1 2.4 17.3-6.5zM689.1 378.6l-54.6 4.6 53.8-3.1z"/><path d="m543.4 377 41.1 7.5 8.8-1.9-41.1-7.4z"/><path d="m594.2 378.2-22.8 4.6 10.2 1.7 21.6-4.2zM280.2 375.8l-44.5 9.1-3.2 1.8 43.3-9.1zM270.2 381.4l7.8-2.2-43.4 7.7-1 1.1zM536.2 382.4l22.6-.2 28.7-7.2zM604.8 380.8l29.7 2.4-16.5-4zM688.3 380.1l-53.8 3.1 49.4-1.3zM288.1 381.2l-17.9.2-36.6 6.6-7.3 2.3zM593.3 382.6l41.2.6-29.7-2.4z"/><path d="m275.8 377.6-43.3 9.1 2.1.2 43.4-7.7zM537.7 378.7l41.3 7.7 5.5-1.9-41.1-7.5zM683.9 381.9l-49.4 1.3 41.5.6zM380.4 375.7 303.7 388l26.1 6.7 75.5-13.5zM584.5 384.5l50-1.3-41.2-.6z"/><path d="m676 383.8-41.5-.6 30.6 2.5zM535.7 380.2l41.6 7.9 1.7-1.7-41.3-7.7z"/><path d="m532.1 382-11.5 7.2 33.7-8.8zM579 386.4l55.5-3.2-50 1.3zM665.1 385.7l-30.6-2.5 17.3 4.2z"/><path d="m644.6 390.3-51-9.1-10.9.4 50.4 9.1zM554.3 380.4l-33.7 8.8 35.8-.8 15-5.6zM288.1 381.2l-61.8 9.1 66.5-6.7z"/><path d="m489.4 382.6-3.5 5 34.7 1.6 11.5-7.2zM577.3 388.1l57.2-4.9-55.5 3.2z"/><path d="m537.6 381.5 41.9 7.9-2.2-1.3-41.6-7.9zM651.8 387.4l-17.3-4.2 2.7 5.7z"/><path d="m571.4 382.8-15 5.6h18.2l7-3.9zM579.5 389.4l55-6.2-57.2 4.9zM637.2 388.9l-2.7-5.7-12.4 6.8zM429.1 385.5l14.1 4.1 46.2-7 .7-5.9z"/><path d="m585.7 390.3 48.8-7.1-55 6.2zM622.1 390l12.4-6.8-26.7 7.4z"/><path d="m595.4 390.8 39.1-7.6-48.8 7.1zM607.8 390.6l26.7-7.4-39.1 7.6z"/><path d="m536.2 382.4 48.9 9.4 23.2-.4-49.5-9.2zM405.3 381.2l-75.5 13.5 6.4.8 75.3-13.6z"/><path d="M574.6 388.4h-18.2l28.7 3.4zM233.6 388l1-1.1-61.4 13 10.9-1.7zM608.3 391.4l24.8-.7-50.4-9.1-23.9.6zM411.5 381.9l-75.3 13.6 18.2 3.7 74.7-13.7zM235.7 384.9l-54.4 8.8-3.9 2.6 55.1-9.6zM226.3 390.3l7.3-2.3-49.5 10.2 16.1-1.6zM249.5 396.4l53.8-9.3-10.5-3.5zM443.2 389.6l3.7 2.7 39-4.7 3.5-5zM556.4 388.4l19.1 4.3 9.6-.9zM633.1 390.7l-10.2.8 21.7-1.2z"/><path d="m608.3 391.4-2.9.5 17.5-.4 10.2-.8zM226.3 390.3l23.2 6.1 43.3-12.8zM248.9 397.6l54.8-9.6-.4-.9-53.8 9.3z"/><path d="m585.1 391.8-9.6.9 29.9-.8 2.9-.5zM232.5 386.7l-55.1 9.6-4.2 3.6 61.4-13zM485.9 387.6l-16.7 8.7 23.3 1.2 28.1-8.3zM605.4 391.9l4 3.5 13.5-3.9zM429.1 385.5l-74.7 13.7 17.2 2.8 71.6-12.4z"/><path d="m622.9 391.5-13.5 3.9 15.8.5 19.4-5.6zM556.4 388.4 518.3 399l46.3-2.3 10.9-4z"/><path d="m520.6 389.2-28.1 8.3 25.8 1.5 38.1-10.6zM303.7 388l-54.8 9.6 28.3 8 52.6-10.9zM226.3 390.3l-18.7 8.7 41.9-2.6zM575.5 392.7l-10.9 4 44.8-1.3-4-3.5zM446.9 392.3l-14.5 6.1 36.8-2.1 16.7-8.7z"/><path d="m371.6 402 75.3-9.7-3.7-2.7zM200.2 396.6l7.4 2.4 18.7-8.7z"/><path d="m219.6 395.7-11.9.1 24.2 7.3 12.4-.1z"/><path d="m228 396.1-8.4-.4 24.7 7.3 8.8.4zM207.7 395.8l-14.8.6 23.8 7.4 15.2-.7z"/><path d="m232.4 397.1-4.4-1 25.1 7.3 4.5 1zM492.5 397.5l-23.3-1.2-20.4 7.9 17.1 1.9zM192.9 396.4l-16.7 1.1 23.3 7.4 17.2-1.1zM371.6 402l60.8-3.6 14.5-6.1z"/><path d="m184.1 398.2-6.3 2.8 22.4-4.4zM518.3 399l-25.8-1.5-26.6 8.6 22.5 1.8z"/><path d="m176.2 397.5-17.6 1.6 22.8 7.5 18.1-1.7zM219.1 403.6l29.8-6 .6-1.2-28 6.4z"/><path d="m184.1 398.2-10.9 1.7-21.6 7.5 26.2-6.4zM207.6 399l13.9 3.8 28-6.4zM587.5 407l37.7-11.1-15.8-.5-38.5 11zM336.2 395.5l-51.3 11 69.5-7.3zM329.8 394.7l-52.6 10.9 7.7.9 51.3-11z"/><path d="m158.6 399.1-17.5 1.8 22.5 7.6 17.8-1.9z"/><path d="m200.2 396.6-25.1 7.4 2.4 4.4 30.1-9.4zM432.4 398.4l-17.1 5.4 33.5.4 20.4-7.9z"/><path d="m177.8 401-2.7 3 25.1-7.4zM177.4 396.3l-49 9.3 4.6 1.8 40.2-7.5zM371.6 402l43.7 1.8 17.1-5.4zM248.9 397.6l-16.4 10.6 44.7-2.6z"/><path d="M141.1 400.9 125 403l22.1 7.7 16.5-2.2z"/><path d="m115.7 405.1 12.7.5 49-9.3 3.9-2.6zM244.3 403l-12.4.1-42.8 8.3z"/><path d="m253.1 403.4-8.8-.4-55.2 8.4z"/><path d="m219.1 403.6 13.4 4.6 16.4-10.6z"/><path d="m231.9 403.1-15.2.7-27.6 7.6z"/><path d="m207.6 399-30.1 9.4 3.8 4 40.2-9.6zM257.6 404.4l-4.5-1-64 8zM125 403l-13.7 2.1 21.8 7.9 14-2.3zM528.5 407.5l42.4-1.1 38.5-11-44.8 1.3z"/><path d="m177.8 401-26.2 6.4-8.2 5.5 31.7-8.9zM216.7 403.8l-17.2 1.1-10.4 6.5zM488.4 407.9l40.1-.4 36.1-10.8-46.3 2.3z"/><path d="m257.7 405.9-.1-1.5-68.5 7zM354.4 399.2l-40.3 16 57.5-13.2zM371.6 402l17.1 9.7 26.6-7.9zM465.9 406.1l-17.1-1.9-31.8 9.9 12.2 1.7z"/><path d="m199.5 404.9-18.1 1.7 7.7 4.8zM139.7 409.1l11.9-1.7 21.6-7.5zM133 407.4l6.7 1.7 33.5-9.2zM111.3 405.1l-10.2 2.1 21.7 8.1 10.3-2.3zM253.2 407.7l4.5-1.8-68.6 5.5zM388.7 411.7l-17.1-9.7-57.5 13.2 37.2 5.6z"/><path d="m83.2 412.2 32.5-7.1-6.4-.4-18.6 4.5zM181.4 406.6l-17.8 1.9 25.5 2.9zM488.4 407.9l-22.5-1.8-36.7 9.7 21.9 2zM415.3 403.8l-26.6 7.9 28.3 2.4 31.8-9.9zM284.9 406.5l29.2 8.7 40.3-16zM244.3 409.8l8.9-2.1-64.1 3.7z"/><path d="m101.1 407.2-5.8 1.8 21.6 8.3 5.9-2zM232.5 408.2l14.5 3.9 30.2-6.5zM277.2 405.6l-30.2 6.5 9.6 1.4 28.3-7z"/><path d="m115.7 405.1-32.5 7.1.7 2.7 44.5-9.3zM139.7 409.1l-6.7-1.7-40.3 10.3 32.9-3.3zM163.6 408.5l-16.5 2.2 42 .7z"/><path d="m175.1 404-31.7 8.9-3.2 7.9 37.3-12.4zM221.5 402.8l-36.1 12.7 15.2 6.9 37.8-14zM95.3 409l-1 1.6 21.7 8.3.9-1.6z"/><path d="m231.5 412.1 12.8-2.3-55.2 1.6zM128.4 405.6l-44.5 9.3 8.8 2.8 40.3-10.3zM552.6 417.9l34.9-10.9-16.6-.6-35.7 10.8zM147.1 410.7l-14 2.3 56-1.6z"/><path d="m139.7 409.1-14.1 5.3 17.8-1.5 8.2-5.5zM181.3 412.4l4.1 3.1 36.1-12.7zM284.9 406.5l-13.5 12 42.7-3.3z"/><path d="m215.4 414.4 16.1-2.3-42.4-.7zM133.1 413l-10.3 2.3 66.3-3.9zM417 414.1l-28.3-2.4-37.4 9.1 24.3 5zM256.6 413.5l14.8 5 13.5-12zM197.2 416.5l18.2-2.1-26.3-3z"/><path d="m122.8 415.3-5.9 2 72.2-5.9zM489.6 417.3l45.6-.1 35.7-10.8-42.4 1.1z"/><path d="m177.5 408.4-37.3 12.4-1.1 5.1 42.2-13.5zM451.1 417.8l38.5-.5 38.9-9.8-40.1.4zM138.5 416.5l12-4.2-45 15h3z"/><path d="m180.2 422.8-32-11.3-31.6.7 31 11.6zM429.2 415.8l-12.2-1.7-41.4 11.7 5.9 2.2zM178.1 418.3l19.1-1.8-8.1-5.1zM238.4 408.4l-37.8 14 15.6 5.3 40.4-14.2zM83.2 412.2l-11.6 6.5-4.8 7 17.1-10.8z"/><path d="m147.6 423.8-31-11.6-23.4-.5 30.2 11.6z"/><path d="m117.5 419.7 8.1-5.3-32.9 3.3 9.7 6.1z"/><path d="m116.9 417.3-.9 1.6 73.1-7.5z"/><path d="m125.6 414.4-8.1 5.3 22.7 1.1 3.2-7.9zM159.5 419.7l18.6-1.4 11-6.9zM451.1 417.8l-21.9-2-47.7 12.2 19.5 2.1z"/><path d="m116 418.9 4.3 1.2 68.8-8.7zM351.3 420.8l-37.2-5.6-30.2 6.9 11.4 10.2zM142.9 420.4l16.6-.7 29.6-8.3z"/><path d="m120.3 420.1 9.2.5 59.6-9.2zM129.5 420.6l13.4-.2 46.2-9zM271.4 418.5l12.5 3.6 30.2-6.9z"/><path d="m181.3 412.4-42.2 13.5 7.4 5.6 38.9-16zM140.2 420.8l-22.7-1.1 2.6 8.3 19-2.1zM83.9 414.9l-17.1 10.8 15.2 4.6 10.7-12.6z"/><path d="m117.5 419.7-15.1 4.1 17.7 4.2zM256.6 413.5l-29.1 16.3 15.2 2.1 28.7-13.4zM510.1 430.2l42.5-12.3-17.4-.7-43.2 12.3zM375.6 425.8l-24.3-5-56 11.5 8.3 9.6zM185.4 415.5l-38.9 16 14.3 6.1 39.8-15.2zM95.8 431.3l6.6-7.5-9.7-6.1L82 430.3zM216.2 427.7l11.3 2.1 29.1-16.3zM439.6 430.1l52.4-.6 43.2-12.3-45.6.1z"/><path d="M401 430.1h38.6l50-12.8-38.5.5zM139.1 425.9l-19 2.1 10.9 7.9 15.5-4.4zM381.5 428l-5.9-2.2-72 16.1 21.6.9z"/><path d="m401 430.1-19.5-2.1-56.3 14.8 24.5 3zM280.7 433l14.6-.7-11.4-10.2zM242.7 431.9l22.3 1.5 18.9-11.3-12.5-3.6zM200.6 422.4l-39.8 15.2 14.5 5 40.9-14.9zM265 433.4l15.7-.4 3.2-10.9zM66.8 425.7l-1.1 9.8 17.5 4.1-1.2-9.3z"/><path d="m95.8 431.3-13.8-1 1.2 9.3 20.6-1.7z"/><path d="m95.8 431.3 8 6.6 16.3-9.9-17.7-4.2z"/><path d="m120.1 428-16.3 9.9 11.5 6.3 15.7-8.3zM105.5 427.3 98.9 441l3.2-1.2 6.4-12.5zM146.5 431.5l-15.5 4.4 15.4 6.6 14.4-4.9zM216.2 427.7l-40.9 14.9 18.1 4 34.1-16.8zM492 429.5l-53.4 14.6 10.3 3.4 61.2-17.3zM227.5 429.8l-34.1 16.8 19.9 1.4 29.4-16.1z"/><path d="m439.6 430.1-53.9 17.8 52.9-3.8 53.4-14.6zM280.7 433 267 447.2l36.6-5.3-8.3-9.6zM103.8 437.9l-20.6 1.7 13 9 19.1-4.4zM337.2 447.6l43.4-12.9-46 2.1-32.7 12z"/><path d="m334.6 436.8-50.5 5 17.8 7zM242.7 431.9 213.3 448l29.6.6 22.1-15.2zM160.8 437.6l-14.4 4.9 14.7 5.6 14.2-5.5zM131 435.9l-15.7 8.3 16.2 6.9 14.9-8.6z"/><path d="m265 433.4-22.1 15.2 24.1-1.4 13.7-14.2zM349.7 445.8l36 2.1 53.9-17.8H401zM79.8 444.2l16.4 4.4-13-9-17.5-4.1zM175.3 442.6l-14.2 5.5 22.8 5.3 9.5-6.8z"/><path d="m284.1 441.8-47.7 9.3 65.5-2.3zM438.6 444.1l-7.8 4.9 18.1-1.5zM371.8 440.6l36.8 10.8 11.2.7-37.4-10.9z"/><path d="m357.4 440.7 36.2 10.9 15-.2-36.8-10.8zM382.4 441.2l37.4 10.9 6.6 1.5-37.9-11z"/><path d="m339.9 441.7 35.6 10.9 18.1-1-36.2-10.9zM385.7 447.9l45.1 1.1 7.8-4.9zM146.4 442.5l-14.9 8.6 14.3 6.1 15.3-9.1zM267 447.2l-7.6 4.3 44.2-9.6zM115.3 444.2l-19.1 4.4 10.1 13.1 25.2-10.6zM303.6 441.9l-38.8 12.3 6.9 2.2 53.5-13.6z"/><path d="m320.5 443.3 35 11.1 20-1.8-35.6-10.9z"/><path d="m349.7 445.8-15.2 8.1 51.2-6z"/><path d="m381.3 451.2 49.5-2.2-45.1-1.1zM193.4 446.6l-9.5 6.8 27.3 1.6 2.1-7zM242.9 448.6l-7.4 4.5 23.9-1.6 7.6-4.3zM259.4 451.5l5.4 2.7 38.8-12.3zM325.2 442.8l-53.5 13.6 6.5 7.5 71.5-18.1z"/><path d="m300.2 445.5 34.4 11.3 20.9-2.4-35-11.1zM213.3 448l-2.1 7 24.3-1.9 7.4-4.5z"/><path d="m287.2 460.6 50-13-35.3 1.2-52 13.1zM236.4 451.1l-20.6 6.2 86.1-8.5z"/><path d="m259.4 451.5-23.9 1.6-26.8 10.8 56.1-9.7zM98.9 441l33.9 23.6 2.4-1.9-33.1-22.9zM161.1 448.1l-15.3 9.1 15.8 5.3 22.3-9.1zM280.4 448.3l33.9 11.5 20.3-3-34.4-11.3z"/><path d="m334.5 453.9-5.8 2.6 52.6-5.3 4.4-3.3z"/><path d="m349.7 445.8-71.5 18.1 2.9 3.5 53.4-13.5zM183.9 453.4l9 6.8 18.3-5.2z"/><path d="m328.7 456.5 5.8-2.6-53.4 13.5zM393.6 451.6l-45.2 12.6 60.2-12.8z"/><path d="m408.6 451.4-60.2 12.8 71.4-12.1z"/><path d="m375.5 452.6-27.1 11.6 45.2-12.6zM419.8 452.1l-71.4 12.1 78-10.6zM262.3 451.4l33.5 11.8 18.5-3.4-33.9-11.5z"/><path d="m215.8 457.3 5.7 4.1 80.4-12.6zM131.5 451.1l-25.2 10.6 34 6.7 5.5-11.2zM355.5 454.4l-7.1 9.8 27.1-11.6z"/><path d="m211.2 455-18.3 5.2 15.8 3.7 26.8-10.8zM426.4 453.6l-78 10.6 79.5-8.4zM334.6 456.8l13.8 7.4 7.1-9.8zM221.5 461.4l28.4.5 52-13.1z"/><path d="m427.9 455.8-79.5 8.4 75.7-5.6zM264.8 454.2l-56.1 9.7 11.3 5.4 51.7-12.9z"/><path d="m247.2 454.6 33.2 12.1 15.4-3.5-33.5-11.8zM174.8 464.4l18.1-4.2-9-6.8-22.3 9.1zM314.3 459.8l34.1 4.4-13.8-7.4zM424.1 458.6l-75.7 5.6 66.8-2.4z"/><path d="m295.8 463.2 52.6 1-34.1-4.4z"/><path d="m415.2 461.8-66.8 2.4 53 1.1zM271.7 456.4 220 469.3l17.5 3.8 40.7-9.2zM145.8 457.2l-5.5 11.2 18.1 4.5 3.2-10.4z"/><path d="m236.2 457.8 33.2 12.4 11-3.5-33.2-12.1zM174.8 464.4l-13.2-1.9-3.2 10.4 20.6-1.1zM280.4 466.7l68-2.5-52.6-1zM401.4 465.3l-53-1.1 35.2 4.6z"/><path d="m269.4 470.2 79-6-68 2.5zM230.4 460.6l33.3 12.7 5.7-3.1-33.2-12.4zM383.6 468.8l-35.2-4.6 14.5 7.9zM174.8 464.4l4.2 7.4 29.7-7.9-15.8-3.7z"/><path d="m263.7 473.3 84.7-9.1-79 6zM362.9 472.1l-14.5-7.9-7.6 10.7z"/><path d="m278.2 463.9-40.7 9.2 21.4.8 22.2-6.5zM208.7 463.9l-29.7 7.9 15.7 9.1 25.3-11.6z"/><path d="m230.3 462.9 33.6 12.9-.2-2.5-33.3-12.7z"/><path d="m263.9 475.8 84.5-11.6-84.7 9.1zM340.8 474.9l7.6-10.7-29.6 12.8z"/><path d="m270.1 477.6 78.3-13.4-84.5 11.6z"/><path d="m318.8 477 29.6-12.8-49.8 14zM282 478.4l66.4-14.2-78.3 13.4z"/><path d="m298.6 478.2 49.8-14-66.4 14.2zM179 471.8l-20.6 1.1 18 12.5 18.3-4.5zM258.9 473.9l-21.4-.8-7.4 11.4 26.5-4.9z"/><path d="m132.8 464.6 65.3 19.5 1.2-2.6-64.1-18.8zM296.8 479.4l37.8-2.1-47.4-16.7-37.3 1.3z"/><path d="m220 469.3-25.3 11.6 35.4 3.6 7.4-11.4zM266.9 478.9l29.9.5-46.9-17.5-28.4-.5z"/><path d="m258.9 473.9-2.3 5.7 10.3-.7zM334.6 477.3l-25.4 1.8 27-1.2zM160.6 480.9l15.8 4.5-18-12.5-18.1-4.5zM256.6 479.6l-26.5 4.9 7.3 2.2 45.1-8.3z"/><path d="m282.5 478.4-45.1 8.3 22.1.3 49.7-7.9zM194.7 480.9l-18.3 4.5 36 2.9 17.7-3.8z"/><path d="m309.2 479.1-49.7 7.9 4.4 3.3 72.3-12.4zM230.1 484.5l-17.7 3.8 25-1.6z"/><path d="m198.1 484.1 65.8 6.2-4.4-3.3-60.2-5.5z"/></g><g stroke="#585858" stroke-miterlimit="1"><path fill="#585858" d="m530.1 237.9.2-14.4-1.3 2.5v2z"/><path fill="#2f2f2f" d="m513.7 290.8 4 17 36 4.2-2.5-17.4z"/><path fill="#656565" d="m512.1 240.9 18-3-1.1-9.9-15.5 2.1z"/><path fill="#5d5d5d" d="m528.7 223.5-18.1 2.7 1.6.1 18.1-2.8z"/><path fill="#616161" d="m530.3 223.5-18.1 2.8 1.4 1.7 15.4-2z"/><path fill="#2f2f2f" d="m505.6 274.4 8.1 16.4 37.5 3.8-9.1-16.8zM521.8 331.6l31.3 3.9.6-23.5-36-4.2z"/><path fill="#7c7c7c" d="m529 226-15.4 2 37.4 1.5 15.4-2.2z"/><path fill="#2c2c2c" d="m510.6 226.2-.2 14.7h1.7l.1-14.6z"/><path fill="#4b4b4b" d="m512.2 226.3-.1 14.6 1.4-10.8.1-2.1z"/><path fill="#2e2e2e" d="m513.6 228-.1 2.1 37.5 1.5v-2.1z"/><path fill="#2f2f2f" d="m491.2 269.6 14.4 4.8 36.5 3.4-13.8-5.2z"/><path fill="#656565" d="m547.8 322.4 1-10.4-24.9 3.9z"/><path fill="#656565" d="m545.2 332.4 2.6-10-23.9-6.5zM548.8 312l-.6-10.1-24.3 14z"/><path fill="#656565" d="m541.1 341.4 4.1-9-21.3-16.5z"/><path fill="#6d6d6d" d="m566.3 255.1 1.8.1 14.3.2-19.6-1.2z"/><path fill="#2d2d2d" d="m477 348.3 6.3 2.7 33.3 5.6-6.3-2.8z"/><path fill="#656565" d="m548.2 301.9-2.2-9.3-22.1 23.3zM535.9 348.7l5.2-7.3-17.2-25.5z"/><path fill="#7b7b7b" d="m553.6 257.5 12.7-2.4-3.5-.9-25.7 3.2z"/><path fill="#767676" d="m491 271.9-6.8 2.1 33.7 2.9 6.7-2.1z"/><path fill="#656565" d="m546 292.6-3.8-7.9-18.3 31.2z"/><path fill="#2f2f2f" d="m471.5 342.9 5.5 5.4 33.3 5.5-5.4-5.5z"/><path fill="#656565" d="m529.8 353.9 6.1-5.2-12-32.8zM542.2 284.7l-5-5.8-13.3 37z"/><path fill="#777" d="m568.1 255.2-12.7 1.2 5.3.7 21.7-1.7z"/><path fill="#606060" d="m484.2 274-6.5 4.7 33.7 3.1 6.5-4.9z"/><path fill="#666" d="m568.6 229.7-12.7.7-.5 26 12.7-1.2z"/><path fill="#7c7c7c" d="m598.3 256.6-15.9-1.2-21.7 1.7 22.2 1.1z"/><path fill="#2f2f2f" d="m467.3 335.3 4.2 7.6 33.4 5.4-4.2-7.8z"/><path fill="#656565" d="m523.2 356.6 6.6-2.7-5.9-38zM537.2 278.9l-6-3.4-7.3 40.4z"/><path fill="#454545" d="m477.7 278.7-5.6 7 33.7 3.4 5.6-7.3z"/><path fill="#2d2d2d" d="m555.9 230.4-1.8 1.2-.5 25.9 1.8-1.1z"/><path fill="#2f2f2f" d="m464.6 326 2.7 9.3 33.4 5.2-2.5-9.6z"/><path fill="#282828" d="m556.4 228.4-5.4 1.1v2.1l5.3-1z"/><path fill="#656565" d="M516.6 356.6h6.6l.7-40.7z"/><path fill="#323232" d="m472.1 285.7-4.4 9 33.6 3.7 4.5-9.3z"/><path fill="#2f2f2f" d="m463.8 315.6.8 10.4 33.6 4.9-.8-10.8z"/><path fill="#656565" d="m531.2 275.5-6.6-.7-.7 41.1z"/><path fill="#2f2f2f" d="m467.7 294.7-2.9 10.2 33.7 4.1 2.8-10.6z"/><path fill="#2f2f2f" d="m464.8 304.9-1 10.7 33.6 4.5 1.1-11.1z"/><path fill="#7e7e7e" d="m571.7 227.5-15.3.9 88.5 3.5 14.6-1z"/><path fill="#656565" d="m510.3 353.8 6.3 2.8 7.3-40.7zM524.6 274.8l-6.7 2.1 6 39z"/><path fill="#2f2f2f" d="m556.4 228.4-.1 2.2 88.5 3.6.1-2.3z"/><path fill="#656565" d="m504.9 348.3 5.4 5.5 13.6-37.9z"/><path fill="#757575" d="m599.8 254.9-13.1 1.3 28.4-.4z"/><path fill="#656565" d="m517.9 276.9-6.5 4.9 12.5 34.1zM500.7 340.5l4.2 7.8 19-32.4zM511.4 281.8l-5.6 7.3 18.1 26.8z"/><path fill="#656565" d="m498.2 330.9 2.5 9.6 23.2-24.6z"/><path fill="#656565" d="m505.8 289.1-4.5 9.3 22.6 17.5zM497.4 320.1l.8 10.8 25.7-15z"/><path fill="#656565" d="m501.3 298.4-2.8 10.6 25.4 6.9zM498.5 309l-1.1 11.1 26.5-4.2z"/><path fill="#767676" d="m615.1 255.8-.3 2.2 14.6-1.3z"/><path fill="#7b7b7b" d="m586.7 256.2 28.1 1.8.3-2.2z"/><path fill="#7c7c7c" d="m629.4 256.7-14.6 1.3 3.9 2.6 17.1-1.7z"/><path fill="#7c7c7c" d="m635.8 258.9-17.1 1.7 18.8 1.6 18.8-2.2z"/><path fill="#7a7a7a" d="m614.8 258-12.3-1.2 3.8 2.6 12.4 1.2z"/><path fill="#737373" d="m660.1 261.2 2.1.1 12.2-.2-18.1-1.1z"/><path fill="#7a7a7a" d="m648 262.3 12.1-1.1-3.8-1.2-18.8 2.2z"/><path fill="#2f2f2f" d="m660.5 324.7-1 26.5 40.4 5.7 7.4-26.5z"/><path fill="#797979" d="m659.5 230.9-14.6 1 6.2 1.5 14.7-2.3z"/><path fill="#7b7b7b" d="m662.2 261.3-12.2 2.4 6.4 1.8 18-4.4z"/><path fill="#7a7a7a" d="m602.5 256.8-12-1.4 4 2.6 11.8 1.4z"/><path fill="#666" d="m660.5 324.7-2.1-19.1-22.9 24.1zM662.5 233.5l-12.2 2-.3 28.2 12.2-2.4z"/><path fill="#616161" d="m650 263.7-2-1.4-10.5-.1 18.9 3.3z"/><path fill="#707070" d="m606.3 259.4-11.8-1.4 18.4 2.7 12.9.4z"/><path fill="#2d2d2d" d="m650.3 235.5-2.1-1.4-.2 28.2 2 1.4z"/><path fill="#666" d="m658.4 305.6-8.4-18.5-14.5 42.6z"/><path fill="#2a2a2a" d="m651.1 233.4-6.2-1.5-.1 2.3 6.3 1.6z"/><path fill="#797979" d="m637.5 262.2-11.7-1.1 15.1 3.1 15.5 1.3z"/><path fill="#7e7e7e" d="m674.4 261.1-18 4.4 16.1 3.3 26.6-2.5z"/><path fill="#2f2f2f" d="m660.5 324.7 46.8 5.7.3-19.7-49.2-5.1z"/><path d="m707.3 310.4-3.7-.3-6.1 44.7z"/><path fill="#666" d="m635.5 329.7-1.6 29.8 25.6-8.3 1-26.5z"/><path fill="#7b7b7b" d="m699.1 266.3-2.9 8.5 8.2 1.8z"/><path fill="#2f2f2f" d="m658.4 305.6 49.2 5.1-9.9-19.6-47.7-4z"/><path fill="#666" d="m650 287.1-13-5.5-1.5 48.1z"/><path fill="#7d7d7d" d="m704.4 276.6-5.3 18.7 4.5 14.8 3.7.3z"/><path fill="#787878" d="m625.8 261.1-12.9-.4 28 3.5z"/><path fill="#2f2f2f" d="m637 281.6 13 5.5 47.7 4-11.5-5.4z"/><path fill="#7b7b7b" d="m656.4 265.5-15.5-1.3 12.6 3.2 19 1.4z"/><path fill="#7d7d7d" d="m699.1 266.3-26.6 2.5 23.7 6z"/><path fill="#7e7e7e" d="m700 235.3 14.2-2.4-48.4-1.8-14.7 2.3z"/><path fill="#7c7c7c" d="m590.5 255.4-39.6-11.6 4.1 2.7 39.5 11.5z"/><path fill="#7d7d7d" d="m696.2 274.8-3 9.9 5.9 10.6 5.3-18.7z"/><path fill="#7c7c7c" d="m640.9 264.2-28-3.5 3.8 1.7 36.8 5z"/><path fill="#666" d="m637 281.6-13.4 8.4 11.9 39.7zM607.9 357.7l26 1.8 1.6-29.8-26.9 5.4z"/><path fill="#676767" d="m701 233.4 16.6-3.3h-2.3l-16.6 3.2z"/><path fill="#646464" d="m633.9 359.5-26-1.8.2 9.8z"/><path fill="#666" d="m717.6 230.1-16.6 3.3-.3 17.4 16.6-3.7z"/><path fill="#2e2e2e" d="m699.9 237.8.1-2.5-48.9-1.9v2.4z"/><path fill="#656565" d="m707.3 331-23 5.2 21.8 6.8z"/><path fill="#656565" d="m706.1 343-21.8-6.8 19.1 18.3z"/><path fill="#7d7d7d" d="m696.2 274.8-15.7 5 12.7 4.9z"/><path fill="#656565" d="m707.1 319.3-22.8 16.9 23-5.2zM703.4 354.5l-19.1-18.3 15.1 28.7z"/><path fill="#656565" d="m705.3 308.6-21 27.6 22.8-16.9z"/><path fill="#656565" d="m699.4 364.9-15.1-28.7 10.1 37.4z"/><path fill="#666" d="m623.6 290-12.8 21.9 24.7 17.8z"/><path fill="#2d2d2d" d="m700.7 250.8.3-17.4-2.3-.1-.3 17.4z"/><path fill="#656565" d="m702.1 299.7-17.8 36.5 21-27.6z"/><path fill="#7d7d7d" d="m672.5 268.8 8 11 15.7-5z"/><path fill="#656565" d="m694.4 373.6-10.1-37.4 4.3 43.6z"/><path fill="#2e2e2e" d="m631.8 376 44.5 7.5-5.7-3-44.8-7.5z"/><path fill="#7c7c7c" d="m693.2 284.7-12.7-4.9 5.7 5.9 11.5 5.4z"/><path fill="#666" d="m610.8 311.9-2.2 23.2 26.9-5.4z"/><path fill="#656565" d="m697.7 293.1-13.4 43.1 17.8-36.5z"/><path fill="#656565" d="m688.6 379.8-4.3-43.6-1.8 47zM692.3 289.2l-8 47 13.4-43.1z"/><path fill="#2f2f2f" d="m625.8 373 44.8 7.5-4.9-6.2-44.9-7.2z"/><path fill="#787878" d="m634.6 287.2 45.2 4 6.4-2.6-45.1-3.9z"/><path fill="#656565" d="m682.5 383.2 1.8-47-8 47.3zM686.2 288.6l-1.9 47.6 8-47z"/><path fill="#656565" d="m676.3 383.5 8-47.3-13.7 44.3z"/><path fill="#2f2f2f" d="m620.8 367.1 44.9 7.2-3.6-8.9-45.1-7z"/><path fill="#606060" d="m628.4 292.7 45.3 4.3 6.1-5.8-45.2-4z"/><path fill="#7d7d7d" d="m653.5 267.4-10.6 6.3 29.6-4.9z"/><path fill="#656565" d="m679.8 291.2 4.5 45 1.9-47.6zM670.6 380.5l13.7-44.3-18.6 38.1z"/><path fill="#7e7e7e" d="m672.5 268.8-29.6 4.9 24 10.4 13.6-4.3zM616.7 262.4l-3.7 5.2 29.9 6.1 10.6-6.3z"/><path fill="#2f2f2f" d="m617 358.4 45.1 7-2.2-11.1-45.2-6.6z"/><path fill="#656565" d="m673.7 297 10.6 39.2-4.5-45z"/><path fill="#454545" d="m622.8 301 45.4 4.6 5.5-8.6-45.3-4.3z"/><path fill="#656565" d="m665.7 374.3 18.6-38.1-22.2 29.2z"/><path fill="#7e7e7e" d="m680.5 279.8-13.6 4.3 7 10.5 12.3-8.9z"/><path fill="#656565" d="m668.2 305.6 16.1 30.6-10.6-39.2z"/><path fill="#656565" d="m662.1 365.4 22.2-29.2-24.4 18.1z"/><path fill="#2f2f2f" d="m614.7 347.7 45.2 6.6-.4-12.5-45.4-6z"/><path fill="#323232" d="m618.4 311.5 45.4 5 4.4-10.9-45.4-4.6z"/><path fill="#7c7c7c" d="m572.5 250.2 12.7 5.4 31.5 6.8-3.8-1.7z"/><path fill="#656565" d="m663.8 316.5 20.5 19.7-16.1-30.6zM659.9 354.3l24.4-18.1-24.8 5.6z"/><path fill="#2f2f2f" d="m614.1 335.8 45.4 6 1.3-12.9-45.4-5.5zM615.4 323.4l45.4 5.5 3-12.4-45.4-5z"/><path fill="#656565" d="m660.8 328.9 23.5 7.3-20.5-19.7z"/><path fill="#656565" d="m659.5 341.8 24.8-5.6-23.5-7.3z"/><path fill="#7d7d7d" d="m550.9 243.8-51.2-9.3 4.1 2.9 51.2 9.1z"/><path fill="#737373" d="m673.9 294.6-7-10.5-4.6 34.8z"/><path fill="#7d7d7d" d="m555 246.5-51.2-9.1 17 4.8 51.7 8z"/><path fill="#7e7e7e" d="m585.2 255.6 2.2 4.1 25.6 7.9 3.7-5.2z"/><path fill="#686868" d="m666.9 284.1-15.1 36.6 10.5-1.8z"/><path fill="#474747" d="m659.5 365.7-10.1.8 10.4 9.4z"/><path fill="#4c4c4c" d="m660.4 342.1-9.9 7.3-1.1 17.1 10.1-.8z"/><path fill="#525252" d="m662.3 318.9-10.5 1.8-1.3 28.7 9.9-7.3z"/><path fill="#7e7e7e" d="m613 267.6-13.3 5.5 19.1 5.2 24.1-4.6z"/><path fill="#5f5f5f" d="m650.5 349.4-14.1 20.4 13-3.3z"/><path fill="#7e7e7e" d="m572.5 250.2-51.7-8 14.8 5.1 49.6 8.3z"/><path fill="#767676" d="m649.4 366.5-13 3.3 4.5 11.4 18.9-5.3z"/><path fill="#727272" d="m666.9 284.1-34.4 7.2 5.5 36.1 13.8-6.7z"/><path fill="#7e7e7e" d="m642.9 273.7-24.1 4.6 13.7 13 34.4-7.2z"/><path fill="#7d7d7d" d="m468 233.1-44.4-.3 35 1.7h41.1z"/><path fill="#636363" d="m386.9 238.9-16.3 6.6 49.3-9.6z"/><path fill="#676767" d="m651.8 320.7-13.8 6.7-1.6 42.4 14.1-20.4z"/><path fill="#7e7e7e" d="m587.4 259.7-11.9 3.7 24.2 9.7 13.3-5.5z"/><path fill="#7d7d7d" d="m535.6 247.3 51.8 12.4-2.2-4.1z"/><path fill="#575757" d="m358 247.8 12.6-2.3 16.3-6.6z"/><path fill="#7e7e7e" d="m618.8 278.3-19.1-5.2-21.8 9.3 14.8 4z"/><path fill="#2f2f2f" d="m265.9 378 40.5 10.2-7.8-11.4-36.1-8.7z"/><path fill="#7e7e7e" d="m535.6 247.3 39.9 16.1 11.9-3.7zM632.5 291.3l-13.7-13-26.1 8.1 10.4 13.2z"/><path fill="#626262" d="m370.6 245.5 20.6-2.6 28.7-7z"/><path fill="#7e7e7e" d="m604 391.4 36.9-10.2-4.5-11.4-37 9.7z"/><path fill="#7d7d7d" d="m503.8 237.4-40.3.7 57.3 4.1z"/><path fill="#7e7e7e" d="M499.7 234.5h-41.1l4.9 3.6 40.3-.7z"/><path fill="#595959" d="m358 247.8-44 25.4 5.1 1.7 51.5-29.4z"/><path fill="#7e7e7e" d="m575.5 263.4-13.8 2.2 16.2 16.8 21.8-9.3z"/><path fill="#494949" d="m314.7 272-.7 1.2 44-25.4z"/><path fill="#7e7e7e" d="m535.6 247.3 26.1 18.3 13.8-2.2z"/><path fill="#2f2f2f" d="m281.1 317.1-35-5.9 13.8 24.7 35.7 6.8z"/><path fill="#2f2f2f" d="m298.6 376.8-3-34.1-35.7-6.8 2.6 32.2z"/><path fill="#7a7a7a" d="m423.6 232.8-7.5 2.3 42.5-.6z"/><path fill="#666" d="m281.3 368.1 1.2-12.6-40.9 6.5z"/><path fill="#666" d="m277.6 380.3 3.7-12.2-39.7-6.1z"/><path fill="#686868" d="m397.2 235.7 18.9-.6 7.5-2.3z"/><path fill="#666" d="m282.5 355.5-1.6-12.2-39.3 18.7z"/><path fill="#616161" d="m370.6 245.5-51.5 29.4 6.4 1.6 65.7-33.6z"/><path fill="#666" d="m271.4 391.4 6.2-11.1-36-18.3z"/><path fill="#7b7b7b" d="m225.8 308-10.9-.5 25.6 4.4 11 .4z"/><path fill="#6e6e6e" d="m601.2 338.8-1.8 40.7 37-9.7 1.6-42.4z"/><path fill="#2f2f2f" d="m416.1 235.1-18.9.6-6 7.2 22.9-.2z"/><path fill="#565656" d="m314.7 272-47.1 26-8.1 5.5 54.5-30.3z"/><path fill="#666" d="m280.9 343.3-4.1-11.1-35.2 29.8z"/><path fill="#686868" d="m603.1 299.6-1.9 39.2 36.8-11.4-5.5-36.1z"/><path fill="#666" d="m263.2 400.7 8.2-9.3-29.8-29.4z"/><path fill="#7d7d7d" d="m520.8 242.2-26.3 2.9 41.1 2.2z"/><path fill="#7e7e7e" d="m535.6 247.3 2.9 23.1 23.2-4.8zM592.7 286.4l-14.8-4-28.8 7 7.4 6.4z"/><path fill="#666" d="m276.8 332.2-6.6-9.3-28.6 39.1z"/><path fill="#434343" d="m253.2 302.1 14.4-4.1 21.1-6.9z"/><path fill="#717171" d="m246.7 300.2 6.5 1.9 35.5-11z"/><path fill="#777" d="m214.9 307.5-11 2.8 25.5 4.6 11.1-3z"/><path fill="#666" d="m253.5 407.5 9.7-6.8-21.6-38.7z"/><path fill="#7e7e7e" d="m538.5 270.4-2.9-23.1-41.1-2.2 9.2 32z"/><path fill="#666" d="m270.2 322.9-8.6-6.8-20 45.9z"/><path fill="#7e7e7e" d="m603.1 299.6-10.4-13.2-36.2 9.4 9.9 13.1z"/><path fill="#2e2e2e" d="m186.8 395.1 9.2 6.1 25.1 7.8-9.3-6.2z"/><path fill="#7e7e7e" d="m561.7 265.6-23.2 4.8 10.6 19 28.8-7zM463.5 238.1l31 7 26.3-2.9z"/><path fill="#666" d="m242.7 411.4 10.8-3.9-11.9-45.5z"/><path fill="#606060" d="m203.9 310.3-10.3 6.1 25.3 4.8 10.5-6.3z"/><path fill="#7c7c7c" d="m416.1 235.1 16.1 2.4 26.4-3z"/><path fill="#7e7e7e" d="m458.6 234.5-26.4 3 2.5 8.1 28.8-7.5z"/><path fill="#7a7a7a" d="m253.2 302.1-6.5-1.9-36 6.3 31.4-1.9z"/><path fill="#2f2f2f" d="m432.2 237.5-16.1-2.4-2 7.6 20.6 2.9z"/><path fill="#666" d="m261.6 316.1-10.1-3.8-9.9 49.7z"/><path fill="#626262" d="m314 273.2-54.5 30.3-4.5 9.1 64.1-37.7z"/><path fill="#2f2f2f" d="m179.4 386.2 7.4 8.9 25 7.7-7.5-9.2z"/><path fill="#636363" d="m391.2 242.9-59.6 34.8 19.6 2.7 62.9-37.7z"/><path fill="#454545" d="m193.6 316.4-8.9 9 25.1 5.1 9.1-9.3z"/><path fill="#666" d="m231.7 411.9 11-.5-1.1-49.4z"/><path fill="#747474" d="m242.4 298.1-43.5 8.5 11.8-.1 36-6.3z"/><path fill="#7e7e7e" d="m569.8 401.6 34.2-10.2-4.6-11.9-34.3 9.5z"/><path fill="#2f2f2f" d="m174.6 375 4.8 11.2 24.9 7.4-4.8-11.6z"/><path fill="#666" d="m251.5 312.3-11-.4 1.1 50.1z"/><path fill="#6a6a6a" d="m253.2 302.1-11.1 2.5 17.4-1.1 8.1-5.5z"/><path fill="#606060" d="m325.5 276.5 6.1 1.2 59.6-34.8z"/><path fill="#323232" d="m184.7 325.4-6.8 11.2 25 5.6 6.9-11.7z"/><path fill="#7e7e7e" d="m463.5 238.1-13.9 12.3 44.9-5.3z"/><path fill="#2f2f2f" d="m172.6 362.4 2 12.6 24.9 7-2-13zM177.9 336.6l-4.1 12.6 24.9 6.1 4.2-13.1z"/><path fill="#666" d="m221.1 409 10.6 2.9 9.9-49.9z"/><path fill="#2f2f2f" d="m173.8 349.2-1.2 13.2 24.9 6.6 1.2-13.7z"/><path fill="#666" d="m240.5 311.9-11.1 3 12.2 47.1z"/><path fill="#7e7e7e" d="m549.1 289.4-10.6-19-34.8 6.7 5.2 23z"/><path fill="#7d7d7d" d="m434.7 245.6 14.9 4.8 13.9-12.3z"/><path fill="#666" d="m211.8 402.8 9.3 6.2 20.5-47zM229.4 314.9l-10.5 6.3 22.7 40.8z"/><path fill="#707070" d="m564.1 347 1 42 34.3-9.5 1.8-40.7z"/><path fill="#616161" d="M319.1 274.9 255 312.6l.4 3.8 70.1-39.9z"/><path fill="#666" d="m566.4 308.9-2.3 38.1 37.1-8.2 1.9-39.2z"/><path fill="#7e7e7e" d="m556.5 295.8-7.4-6.4-40.2 10.7.5 7.2z"/><path fill="#666" d="m204.3 393.6 7.5 9.2 29.8-40.8z"/><path fill="#686868" d="m414.1 242.7-62.9 37.7 19.1 2.1 64.4-36.9z"/><path fill="#434343" d="m191.4 310.3-38.5 31.8.9 1.7 45.1-37.2z"/><path fill="#7a7a7a" d="m233.4 310.5 8.7-5.9-31.4 1.9 4 11.5z"/><path fill="#666" d="m218.9 321.2-9.1 9.3 31.8 31.5z"/><path fill="#777" d="m242.1 304.6-8.7 5.9 21.6 2.1 4.5-9.1z"/><path fill="#666" d="m199.5 382 4.8 11.6 37.3-31.6z"/><path fill="#7e7e7e" d="m566.4 308.9-9.9-13.1-47.1 11.5 9.8 11.2z"/><path fill="#666" d="m209.8 330.5-6.9 11.7 38.7 19.8z"/><path fill="#7e7e7e" d="m503.7 277.1-9.2-32L461 255l-9.2 29.7z"/><path fill="#666" d="m197.5 369 2 13 42.1-20zM202.9 342.2l-4.2 13.1 42.9 6.7z"/><path fill="#666" d="m198.7 355.3-1.2 13.7 44.1-7z"/><path fill="#7e7e7e" d="M449.6 250.4 461 255l33.5-9.9z"/><path fill="#616161" d="m325.5 276.5-70.1 39.9 9.6 3.4 66.6-42.1z"/><path fill="#707070" d="m255 312.6-21.6-2.1-1.7 12.5 23.7-6.6z"/><path fill="#5a5a5a" d="m198.9 306.6-45.1 37.2 18.9 1 38-38.3z"/><path fill="#717171" d="m233.4 310.5-18.7 7.5 17 5z"/><path fill="#727272" d="m434.7 245.6-51.8 37.7 16.6.8 50.1-33.7z"/><path fill="#7e7e7e" d="m528.3 413 41.5-11.4-4.7-12.6-41.6 10.7zM508.9 300.1l-5.2-23-51.9 7.6-9.8 26.7z"/><path fill="#636363" d="M331.6 277.7 265 319.8l17.2 3.4 69-42.8z"/><path fill="#676767" d="m193.2 339.5 21.5-21.5-4-11.5-38 38.3z"/><path fill="#6e6e6e" d="m370.3 282.5 12.6.8 51.8-37.7z"/><path fill="#747474" d="m516.4 357.6 7.1 42.1 41.6-10.7-1-42z"/><path fill="#686868" d="m519.2 318.5-2.8 39.1 47.7-10.6 2.3-38.1z"/><path fill="#636363" d="m255.4 316.4-23.7 6.6 10.5 8.1 22.8-11.3z"/><path fill="#7e7e7e" d="m509.4 307.3-.5-7.2-66.9 11.3 19 3.2zM519.2 318.5l-9.8-11.2-48.4 7.3 13 13.9zM438.1 284.5l13.7.2L461 255z"/><path fill="#747474" d="m399.5 284.1 23.3.6L461 255l-11.4-4.6z"/><path fill="#656565" d="m351.2 280.4-69 42.8 17 2.6 71.1-43.3z"/><path fill="#787878" d="m422.8 284.7 15.3-.2L461 255z"/><path fill="#474747" d="m153.8 343.8-26.4 33.6 30.2-7.9 15.1-24.7z"/><path fill="#595959" d="m193.2 339.5-20.5 5.3-15.1 24.7 34-14.4z"/><path fill="#646464" d="m193.2 339.5-1.6 15.6 40.1-32.1-17-5z"/><path fill="#5f5f5f" d="m231.7 323-40.1 32.1 10.2 7.6 40.4-31.6z"/><path fill="#454545" d="m124 409.8-5.4 12.7 8.9-6.7 5.1-11.2z"/><path fill="#616161" d="m265 319.8-22.8 11.3 18.3 3.8 21.7-11.7z"/><path fill="#3c3c3c" d="m411.6 414.7 1.2-10.4-49.5 18.6-5 5.2z"/><path fill="#6a6a6a" d="m370.3 282.5-71.1 43.3 20.6 1.7 63.1-44.2z"/><path fill="#7e7e7e" d="m523.5 399.7-51.4 12.9-3.7 16.4 59.9-16z"/><path fill="#6e6e6e" d="m382.9 283.3-63.1 44.2 21.7-.4 58-43z"/><path fill="#787878" d="m516.4 357.6-51.2 15.3 6.9 39.7 51.4-12.9z"/><path fill="#7e7e7e" d="m438.1 284.5-34 33.4 37.9-6.5 9.8-26.7z"/><path fill="#565656" d="m191.6 355.1-34 14.4 2.2 19.1 42-25.9z"/><path fill="#545454" d="m363.3 422.9 49.5-18.6-2.6-38.9-47 25.6z"/><path fill="#666" d="m410.2 365.4-14.3-29.1-32.7 54.7z"/><path fill="#727272" d="m399.5 284.1-58 43 35.9-5.4 45.4-37z"/><path fill="#2f2f2f" d="m411.6 414.7 56.8 14.3-3.5-12.2-52.1-12.5z"/><path fill="#626262" d="m282.2 323.2-21.7 11.7 17.2 3.2 21.5-12.3z"/><path fill="#5c5c5c" d="m242.2 331.1-40.4 31.6 18.5 4.7 40.2-32.5z"/><path fill="#787878" d="m422.8 284.7-45.4 37 26.7-3.8 34-33.4z"/><path fill="#2f2f2f" d="m412.8 404.3 52.1 12.5-3.7-41-51-10.4z"/><path fill="#717171" d="m474 328.5-8.8 44.4 51.2-15.3 2.8-39.1z"/><path fill="#2f2f2f" d="m126.9 399.8.6 16 35.4 20.8-1-16.8z"/><path fill="#404040" d="m126.9 399.8 32.9-11.2-2.2-19.1-30.2 7.9z"/><path fill="#656565" d="m299.2 325.8-21.5 12.3 29.5-.9 12.6-9.7z"/><path fill="#666" d="m395.9 336.3-33-4.5.3 59.2z"/><path fill="#7c7c7c" d="m472.1 412.6-7.2 4.2 3.5 12.2z"/><path fill="#7e7e7e" d="m465.2 372.9-.3 43.9 7.2-4.2z"/><path fill="#5b5b5b" d="m260.5 334.9-40.2 32.5 16.3 4.2 41.1-33.5z"/><path fill="#7d7d7d" d="m404.1 317.9-9.5 6 47.4-12.5z"/><path fill="#525252" d="m201.8 362.7-42 25.9 12.3 11.1 48.2-32.3z"/><path fill="#7e7e7e" d="m442 311.4-39.2 12.7 9.6-.4 48.6-9.1z"/><path fill="#797979" d="m474 328.5-20.7 13.4 11.9 31z"/><path fill="#7d7d7d" d="m461.2 375.8 3.7 41 .3-43.9z"/><path fill="#6b6b6b" d="m319.8 327.5-12.6 9.7 37.6-8.1-3.3-2z"/><path fill="#797979" d="m377.4 321.7-5.5 2.7 22.7-.5 9.5-6z"/><path fill="#7b7b7b" d="m394.6 323.9 8.2.2 39.2-12.7z"/><path fill="#7e7e7e" d="m461 314.6-48.6 9.1 1.4 12.3 60.2-7.5z"/><path fill="#747474" d="m341.5 327.1 3.3 2 27.1-4.7 5.5-2.7z"/><path fill="#2f2f2f" d="M461.2 375.8 447 344.9l-51.1-8.6 14.3 29.1z"/><path fill="#5f5f5f" d="m314.7 434.7 48.6-11.8-.1-31.9-48.9 10.2z"/><path fill="#666" d="m362.9 331.8-24 9.5 24.3 49.7z"/><path fill="#757575" d="m394.6 323.9-22.7.5-21.4 5.8 52.3-6.1z"/><path fill="#4d4d4d" d="m118.6 422.5 35.6 21.9 8.7-7.8-35.4-20.8z"/><path fill="#5b5b5b" d="m277.7 338.1-41.1 33.5h21.5l49.1-34.4z"/><path fill="#7e7e7e" d="m453.3 341.9-6.3 3 14.2 30.9 4-2.9z"/><path fill="#3c3c3c" d="m126.9 399.8 35 20 10.2-20.1-12.3-11.1z"/><path fill="#333" d="m363.3 422.9-48.6 11.8-10.1 5.4 53.7-12z"/><path fill="#7d7d7d" d="m474 328.5-60.2 7.5 1.6 4.7 37.9 1.2z"/><path fill="#646464" d="m307.2 337.2 15.3.8 22.3-8.9z"/><path fill="#7c7c7c" d="m447 344.9 6.3-3-37.9-1.2z"/><path fill="#666" d="m455.5 393.2-42.2 9.8 40.7 5.6z"/><path fill="#666" d="m454 408.6-40.7-5.6 36.5 20.7zM454.2 378.3 413.3 403l42.2-9.8z"/><path fill="#666" d="M449.8 423.7 413.3 403l30 34.6zM338.9 341.3l-18.1 26.5 42.4 23.2z"/><path fill="#545454" d="m220.3 367.4-48.2 32.3 36.7 4.2 27.8-32.3z"/><path fill="#666" d="m450.3 364.9-37 38.1 40.9-24.7z"/><path fill="#6b6b6b" d="m344.8 329.1-22.3 8.9 28-7.8 21.4-5.8z"/><path fill="#666" d="m443.3 437.6-30-34.6 21.3 46.4zM443.8 353.8 413.3 403l37-38.1zM320.8 367.8l-6.5 33.4 48.9-10.2z"/><path fill="#666" d="M434.6 449.4 413.3 403l11.1 55.3z"/><path fill="#747474" d="m402.8 324.1-52.3 6.1 12.1 4.7 49.8-11.2z"/><path fill="#7d7d7d" d="m374.4 334.6 39 6.7 11.4.2-39.1-6.6z"/><path fill="#5a5a5a" d="m285.5 360.1 37-22.1-15.3-.8-49.1 34.4z"/><path fill="#666" d="M435.1 345.8 413.3 403l30.5-49.2zM424.4 458.3 413.3 403l-.1 60.7z"/><path fill="#666" d="M424.8 341.5 413.3 403l21.8-57.2zM413.2 463.7l.1-60.7-11.6 62z"/><path fill="#2f2f2f" d="m352.4 450.1 38.3 12-9.7-7.1-38.3-11.8z"/><path fill="#7e7e7e" d="m412.4 323.7-49.8 11.2 12.5 8.5 38.7-7.4z"/><path fill="#525252" d="m236.6 371.6-27.8 32.3 33.8-10.4 15.5-21.9z"/><path fill="#737373" d="m362.7 338.5 39 6.9 11.7-4.1-39-6.7z"/><path fill="#515151" d="m285.5 360.1-27.4 11.5-15.5 21.9 42.7-21.9z"/><path fill="#666" d="m413.4 341.3-.1 61.7 11.5-61.5zM401.7 465l11.6-62-22.6 59.1z"/><path fill="#2f2f2f" d="M342.7 443.2 381 455l-7.5-11-38.4-11.4z"/><path fill="#666" d="m401.7 345.4 11.6 57.6.1-61.7z"/><path fill="#606060" d="m351.7 346.3 38.9 7.3 11.1-8.2-39-6.9z"/><path fill="#666" d="m390.7 462.1 22.6-59.1-32.3 52z"/><path fill="#5b5b5b" d="m285.5 360.1-.2 11.5 65.2-41.4-28 7.8z"/><path fill="#666" d="m390.6 353.6 22.7 49.4-11.6-57.6zM381 455l32.3-52-39.8 41z"/><path fill="#7e7e7e" d="m413.8 336-38.7 7.4 14.4 7.3 25.9-10z"/><path fill="#606060" d="m350.5 330.2-65.2 41.4 16.5 8.2 60.8-44.9z"/><path fill="#2f2f2f" d="m335.1 432.6 38.4 11.4-4.9-14-38.4-10.9z"/><path fill="#454545" d="m342 357.6 38.8 7.9 9.8-11.9-38.9-7.3z"/><path fill="#666" d="m380.8 365.5 32.5 37.5-22.7-49.4zM373.5 444l39.8-41-44.7 27z"/><path fill="#2f2f2f" d="m214.5 430.1-52.6-10.3 1 16.8 66 17z"/><path fill="#666" d="m373.2 380.3 40.1 22.7-32.5-37.5z"/><path fill="#2f2f2f" d="m330.2 419.1 38.4 10.9-1.8-16.2-38.4-10.2z"/><path fill="#323232" d="m334.5 371.6 38.7 8.7 7.6-14.8-38.8-7.9z"/><path fill="#666" d="m368.6 430 44.7-27-46.5 10.8zM368.4 396.8l44.9 6.2-40.1-22.7z"/><path fill="#666" d="m366.8 413.8 46.5-10.8-44.9-6.2z"/><path fill="#2f2f2f" d="m328.4 403.6 38.4 10.2 1.6-17-38.5-9.4zM329.9 387.4l38.5 9.4 4.8-16.5-38.7-8.7z"/><path fill="#3d3d3d" d="m214.5 430.1-5.7-26.2-36.7-4.2-10.2 20.1z"/><path fill="#4f4f4f" d="m285.3 371.6-42.7 21.9 7.9 22 51.3-35.7z"/><path fill="#646464" d="m389.5 350.7-14.4-7.3-40.5 42.6 27.1-5.5z"/><path fill="#575757" d="m154.2 444.4 66.8 18 7.9-8.8-66-17z"/><path fill="#676767" d="m362.6 334.9-60.8 44.9 32.8 6.2 40.5-42.6z"/><path fill="#555" d="m389.5 350.7-27.8 29.8 10.8-1.2z"/><path fill="#424242" d="m363.7 449.8-25.1 1.6 20 5.3z"/><path fill="#393939" d="m365.2 414.8-16.4 1.1-10.2 35.5 25.1-1.6z"/><path fill="#3c3c3c" d="m372.5 379.3-10.8 1.2-12.9 35.4 16.4-1.1z"/><path fill="#434343" d="m214.5 430.1 36-14.6-7.9-22-33.8 10.4z"/><path fill="#303030" d="m214.5 430.1 14.4 23.5 60.7 5 4.5-25.4z"/><path fill="#414141" d="m361.7 380.5-27.1 5.5-40.5 47.2 54.7-17.3z"/><path fill="#434343" d="m348.8 415.9-54.7 17.3-4.5 25.4 49-7.2z"/><path fill="#545454" d="m301.8 379.8-51.3 35.7 39.6-.5 44.5-29z"/><path fill="#7e7e7e" d="m338.6 451.4-49 7.2-2.2 9.6 71.2-11.5z"/><path fill="#303030" d="m214.5 430.1 79.6 3.1-4-18.2-39.6.5z"/><path fill="#3a3a3a" d="m334.6 386-44.5 29 4 18.2z"/><path fill="#696969" d="m221 462.4 66.4 5.8 2.2-9.6-60.7-5z"/></g></svg>